<svg xmlns="http://www.w3.org/2000/svg" xmlns:xlink="http://www.w3.org/1999/xlink">

<symbol id="nav-home-icon" viewBox="0 0 160 160"><path d="m 0 80 c 0 -44.1989 35.8011 -80 80 -80 c 44.1989 0 80 35.8011 80 80 c 0 5.52486 -0.55939 10.9185 -1.62465 16.1274 c -1.06527 5.20891 -2.6364 10.2331 -4.65988 15.019 c -2.02348 4.78591 -4.49931 9.33356 -7.37396 13.5894 c -2.87466 4.25587 -6.14814 8.21996 -9.76692 11.8387 c -3.61879 3.61878 -7.58288 6.89226 -11.8387 9.76692 l 0 -56.3415 l 20.2642 0 l -64.5 -65 l -65.5 65 l 20.2642 0 l 0 56.3415 c -4.25587 -2.87466 -8.21996 -6.14814 -11.8387 -9.76692 c -3.61878 -3.61879 -6.89226 -7.58288 -9.76692 -11.8387 c -2.87465 -4.25587 -5.35048 -8.80352 -7.37396 -13.5894 c -2.02348 -4.78591 -3.59461 -9.81008 -4.65988 -15.019 c -1.06526 -5.20891 -1.62465 -10.6026 -1.62465 -16.1274 Z"></path></symbol>

<symbol id="nav-arrow-icon" viewBox="0 0 8 8"><path d="m 6 2 l -2 4 l -2 -4 l 4 0 Z"></path></symbol>

<symbol id="vcard-github-icon" viewBox="0 0 16 16"><path d="M 8 0 C 3.58 0 0 3.58 0 8 c 0 3.54 2.29 6.53 5.47 7.59 c 0.4 0.07 0.55 -0.17 0.55 -0.38 c 0 -0.19 -0.01 -0.82 -0.01 -1.49 c -2.01 0.37 -2.53 -0.49 -2.69 -0.94 c -0.09 -0.23 -0.48 -0.94 -0.82 -1.13 c -0.28 -0.15 -0.68 -0.52 -0.01 -0.53 c 0.63 -0.01 1.08 0.58 1.23 0.82 c 0.72 1.21 1.87 0.87 2.33 0.66 c 0.07 -0.52 0.28 -0.87 0.51 -1.07 c -1.78 -0.2 -3.64 -0.89 -3.64 -3.95 c 0 -0.87 0.31 -1.59 0.82 -2.15 c -0.08 -0.2 -0.36 -1.02 0.08 -2.12 c 0 0 0.67 -0.21 2.2 0.82 c 0.64 -0.18 1.32 -0.27 2 -0.27 c 0.68 0 1.36 0.09 2 0.27 c 1.53 -1.04 2.2 -0.82 2.2 -0.82 c 0.44 1.1 0.16 1.92 0.08 2.12 c 0.51 0.56 0.82 1.27 0.82 2.15 c 0 3.07 -1.87 3.75 -3.65 3.95 c 0.29 0.25 0.54 0.73 0.54 1.48 c 0 1.07 -0.01 1.93 -0.01 2.2 c 0 0.21 0.15 0.46 0.55 0.38 A 8.013 8.013 0 0 0 16 8 c 0 -4.42 -3.58 -8 -8 -8 Z"></path></symbol>

<symbol id="vcard-company-icon" viewBox="0 0 16 16"><path d="M 16 12.999 c 0 0.439 -0.45 1 -1 1 H 7.995 c -0.539 0 -0.994 -0.447 -0.995 -0.999 H 1 c -0.54 0 -1 -0.561 -1 -1 c 0 -2.634 3 -4 3 -4 s 0.229 -0.409 0 -1 c -0.841 -0.621 -1.058 -0.59 -1 -3 c 0.058 -2.419 1.367 -3 2.5 -3 s 2.442 0.58 2.5 3 c 0.058 2.41 -0.159 2.379 -1 3 c -0.229 0.59 0 1 0 1 s 1.549 0.711 2.42 2.088 C 9.196 9.369 10 8.999 10 8.999 s 0.229 -0.409 0 -1 c -0.841 -0.62 -1.058 -0.59 -1 -3 c 0.058 -2.419 1.367 -3 2.5 -3 s 2.437 0.581 2.495 3 c 0.059 2.41 -0.158 2.38 -1 3 c -0.229 0.59 0 1 0 1 s 3.005 1.366 3.005 4 Z"></path></symbol>

<symbol id="vcard-location-icon" viewBox="0 0 12 16"><path d="M 6 0 C 2.69 0 0 2.5 0 5.5 C 0 10.02 6 16 6 16 s 6 -5.98 6 -10.5 C 12 2.5 9.31 0 6 0 Z m 0 14.55 C 4.14 12.52 1 8.44 1 5.5 C 1 3.02 3.25 1 6 1 c 1.34 0 2.61 0.48 3.56 1.36 c 0.92 0.86 1.44 1.97 1.44 3.14 c 0 2.94 -3.14 7.02 -5 9.05 Z M 8 5.5 c 0 1.11 -0.89 2 -2 2 c -1.11 0 -2 -0.89 -2 -2 c 0 -1.11 0.89 -2 2 -2 c 1.11 0 2 0.89 2 2 Z"></path></symbol>

<symbol id="vcard-email-icon" viewBox="0 0 14 16"><path d="M 0 4 v 8 c 0 0.55 0.45 1 1 1 h 12 c 0.55 0 1 -0.45 1 -1 V 4 c 0 -0.55 -0.45 -1 -1 -1 H 1 c -0.55 0 -1 0.45 -1 1 Z m 13 0 L 7 9 L 1 4 h 12 Z M 1 5.5 l 4 3 l -4 3 v -6 Z M 2 12 l 3.5 -3 L 7 10.5 L 8.5 9 l 3.5 3 H 2 Z m 11 -0.5 l -4 -3 l 4 -3 v 6 Z"></path></symbol>

</svg>
